<?xml version="1.0" encoding="UTF-8" standalone="no"?>
<!DOCTYPE svg PUBLIC "-//W3C//DTD SVG 1.1//EN"
 "http://www.w3.org/Graphics/SVG/1.1/DTD/svg11.dtd">
<!-- Generated by graphviz version 2.43.0 (0)
 -->
<!-- Title: life Pages: 1 -->
<svg width="202pt" height="188pt"
 viewBox="0.00 0.00 201.61 188.00" xmlns="http://www.w3.org/2000/svg" xmlns:xlink="http://www.w3.org/1999/xlink">
<g id="graph0" class="graph" transform="scale(1 1) rotate(0) translate(4 184)">
<title>life</title>
<polygon fill="white" stroke="transparent" points="-4,4 -4,-184 197.61,-184 197.61,4 -4,4"/>
<!-- Life -->
<g id="node1" class="node">
<title>Life</title>
<polygon fill="orange" stroke="black" points="113.28,-180 59.28,-180 59.28,-144 113.28,-144 113.28,-180"/>
<text text-anchor="middle" x="86.28" y="-159.2" font-family="Times,serif" font-size="11.00">Life</text>
</g>
<!-- Inverter -->
<g id="node2" class="node">
<title>Inverter</title>
<ellipse fill="ghostwhite" stroke="black" cx="37.28" cy="-90" rx="37.07" ry="18"/>
<text text-anchor="middle" x="37.28" y="-87.2" font-family="Times,serif" font-size="11.00">Inverter</text>
</g>
<!-- Life&#45;&gt;Inverter -->
<g id="edge1" class="edge">
<title>Life&#45;&gt;Inverter</title>
<path fill="none" stroke="black" d="M74.17,-143.7C68.33,-135.35 61.21,-125.18 54.79,-116.02"/>
<polygon fill="black" stroke="black" points="57.52,-113.81 48.92,-107.62 51.79,-117.82 57.52,-113.81"/>
</g>
<!-- Timeout -->
<g id="node4" class="node">
<title>Timeout</title>
<ellipse fill="ghostwhite" stroke="black" cx="135.28" cy="-90" rx="37.77" ry="18"/>
<text text-anchor="middle" x="135.28" y="-87.2" font-family="Times,serif" font-size="11.00">Timeout</text>
</g>
<!-- Life&#45;&gt;Timeout -->
<g id="edge3" class="edge">
<title>Life&#45;&gt;Timeout</title>
<path fill="none" stroke="black" d="M98.4,-143.7C104.24,-135.35 111.35,-125.18 117.77,-116.02"/>
<polygon fill="black" stroke="black" points="120.78,-117.82 123.65,-107.62 115.05,-113.81 120.78,-117.82"/>
</g>
<!-- Busy? -->
<g id="node3" class="node">
<title>Busy?</title>
<ellipse fill="gray" stroke="black" cx="35.28" cy="-18" rx="30.13" ry="18"/>
<text text-anchor="middle" x="35.28" y="-15.2" font-family="Times,serif" font-size="11.00">Busy?</text>
</g>
<!-- Inverter&#45;&gt;Busy? -->
<g id="edge2" class="edge">
<title>Inverter&#45;&gt;Busy?</title>
<path fill="none" stroke="black" d="M36.79,-71.7C36.57,-63.98 36.3,-54.71 36.06,-46.11"/>
<polygon fill="black" stroke="black" points="39.56,-46 35.77,-36.1 32.56,-46.2 39.56,-46"/>
</g>
<!-- Have a Beer! -->
<g id="node5" class="node">
<title>Have a Beer!</title>
<ellipse fill="gray" stroke="black" cx="138.28" cy="-18" rx="55.15" ry="18"/>
<text text-anchor="middle" x="138.28" y="-15.2" font-family="Times,serif" font-size="11.00">Have a Beer!</text>
</g>
<!-- Timeout&#45;&gt;Have a Beer! -->
<g id="edge4" class="edge">
<title>Timeout&#45;&gt;Have a Beer!</title>
<path fill="none" stroke="black" d="M136.02,-71.7C136.36,-63.98 136.75,-54.71 137.12,-46.11"/>
<polygon fill="black" stroke="black" points="140.62,-46.25 137.55,-36.1 133.62,-45.95 140.62,-46.25"/>
</g>
</g>
</svg>
